<mxfile host="65bd71144e">
    <diagram name="Page-1" id="lMXFKlL8Bwvw9kg3FBqw">
        <mxGraphModel dx="1179" dy="1762" grid="1" gridSize="10" guides="1" tooltips="1" connect="1" arrows="1" fold="1" page="1" pageScale="1" pageWidth="850" pageHeight="1100" background="none" math="0" shadow="0">
            <root>
                <mxCell id="0"/>
                <mxCell id="1" style="" parent="0"/>
                <mxCell id="GoKNf1hH-Z8f_osksqzi-78" value="" style="rounded=1;whiteSpace=wrap;html=1;fontFamily=Helvetica;fontSize=11;fontColor=#000000;labelBackgroundColor=default;resizable=1;fillColor=#FFFFFF;opacity=90;strokeColor=#000000;strokeWidth=4;align=center;verticalAlign=middle;arcSize=12;movable=1;rotatable=1;deletable=1;editable=1;connectable=1;shadow=1;" parent="1" vertex="1">
                    <mxGeometry x="130" y="-250" width="870" height="490" as="geometry"/>
                </mxCell>
                <mxCell id="74" value="" style="group" vertex="1" connectable="0" parent="1">
                    <mxGeometry x="185" y="-200" width="760" height="390" as="geometry"/>
                </mxCell>
                <mxCell id="57" value="" style="rounded=1;whiteSpace=wrap;html=1;shadow=1;opacity=90;fontSize=20;verticalAlign=top;fillColor=#b0e3e6;strokeColor=#0e8088;spacing=0;arcSize=9;strokeWidth=5;spacingTop=10;spacingLeft=10;spacingRight=10;" parent="74" vertex="1">
                    <mxGeometry width="760" height="390" as="geometry"/>
                </mxCell>
                <mxCell id="60" value="&lt;font style=&quot;font-size: 20px;&quot;&gt;Process&lt;br&gt;&lt;br&gt;&lt;/font&gt;check&amp;nbsp;&lt;font style=&quot;font-weight: 400;&quot; color=&quot;#000000&quot;&gt;&lt;b&gt;command_1&lt;/b&gt;&lt;/font&gt;&lt;br style=&quot;color: rgb(240, 240, 240); font-weight: 400;&quot;&gt;&lt;b style=&quot;color: rgb(240, 240, 240);&quot;&gt;&lt;font color=&quot;#ff0000&quot;&gt;&lt;i&gt;status&lt;/i&gt;&lt;/font&gt;&lt;/b&gt;" style="html=1;overflow=block;blockSpacing=1;whiteSpace=wrap;fontSize=18;spacing=9;rounded=1;absoluteArcSize=1;arcSize=9;strokeWidth=2;lucidId=YW3KcYp1MhGA;movable=1;resizable=1;rotatable=1;deletable=1;editable=1;locked=0;connectable=1;fillColor=#FFFFFF;fontColor=#000000;strokeColor=#000000;align=center;verticalAlign=middle;fontFamily=Helvetica;fontStyle=1;container=0;horizontal=1;" parent="74" vertex="1">
                    <mxGeometry x="20" y="100" width="200" height="160" as="geometry"/>
                </mxCell>
                <mxCell id="61" value="" style="html=1;jettySize=18;whiteSpace=wrap;fontSize=11;strokeColor=#000000;strokeOpacity=100;strokeWidth=4;rounded=1;arcSize=12;edgeStyle=orthogonalEdgeStyle;startArrow=none;endArrow=classic;endFill=1;entryX=0;entryY=0;entryPerimeter=0;lucidId=YW3KZ0~PzFLt;movable=1;resizable=1;rotatable=1;deletable=1;editable=1;locked=0;connectable=1;entryDx=0;entryDy=223;opacity=70;align=center;verticalAlign=middle;fontFamily=Helvetica;fontColor=#000000;labelBackgroundColor=default;curved=1;exitX=1;exitY=0.75;exitDx=0;exitDy=0;" parent="74" source="60" target="59" edge="1">
                    <mxGeometry width="100" height="100" relative="1" as="geometry">
                        <mxPoint x="170" y="310" as="sourcePoint"/>
                        <mxPoint x="341.8800000000001" y="233.28750000000014" as="targetPoint"/>
                    </mxGeometry>
                </mxCell>
                <mxCell id="62" value="if command_1&amp;nbsp;&lt;i&gt;&lt;font color=&quot;#ff0000&quot;&gt;&lt;u&gt;is open&lt;/u&gt;&lt;/font&gt;&lt;/i&gt;&lt;i&gt;&lt;u&gt;&lt;br&gt;&lt;/u&gt;Transaction:&amp;nbsp;&lt;/i&gt;&lt;br&gt;record_1 &amp;amp;&lt;br&gt;record_2 &amp;amp;&lt;br&gt;&lt;i&gt;&lt;font color=&quot;#ff0000&quot;&gt;close &lt;/font&gt;&lt;/i&gt;command_1 &amp;amp;&lt;br&gt;&lt;i&gt;&lt;font color=&quot;#ff0000&quot;&gt;persist&lt;/font&gt;&lt;/i&gt; command_2" style="html=1;overflow=block;blockSpacing=1;whiteSpace=wrap;ellipse;shape=cloud;fontSize=18;spacing=9;strokeColor=#000000;strokeOpacity=100;fillOpacity=100;rounded=1;absoluteArcSize=1;arcSize=9;fillColor=#FFFFFF;strokeWidth=2;lucidId=YW3KfiS4kU.2;movable=1;resizable=1;rotatable=1;deletable=1;editable=1;locked=0;connectable=1;align=center;verticalAlign=middle;fontFamily=Helvetica;fontColor=#000000;fontStyle=1;container=0;" parent="74" vertex="1">
                    <mxGeometry x="253.12" y="110" width="288.75" height="270" as="geometry"/>
                </mxCell>
                <mxCell id="59" value="Database" style="html=1;overflow=block;blockSpacing=1;whiteSpace=wrap;shape=cylinder3;size=4;anchorPointDirection=0;boundedLbl=1;fontSize=18;spacing=9;strokeColor=#000000;rounded=1;absoluteArcSize=1;arcSize=9;fillColor=#FFFFFF;strokeWidth=2;lucidId=YW3Kp418ABGM;fontColor=#000000;movable=1;resizable=1;rotatable=1;deletable=1;editable=1;locked=0;connectable=1;align=center;verticalAlign=middle;fontFamily=Helvetica;fontStyle=1;" parent="74" vertex="1">
                    <mxGeometry x="600" y="50" width="130" height="280" as="geometry"/>
                </mxCell>
                <mxCell id="70" style="edgeStyle=orthogonalEdgeStyle;html=1;exitX=-0.003;exitY=0.099;exitDx=0;exitDy=0;exitPerimeter=0;entryX=1;entryY=0.25;entryDx=0;entryDy=0;strokeColor=#000000;fontColor=#000000;strokeWidth=4;arcSize=12;startArrow=none;endFill=1;opacity=70;curved=1;" edge="1" parent="74" source="59" target="60">
                    <mxGeometry relative="1" as="geometry">
                        <mxPoint x="600" y="65" as="sourcePoint"/>
                        <Array as="points">
                            <mxPoint x="285" y="78"/>
                            <mxPoint x="285" y="140"/>
                        </Array>
                    </mxGeometry>
                </mxCell>
                <mxCell id="67" value="&lt;i&gt;&lt;font color=&quot;#ff0000&quot;&gt;fetch&amp;nbsp;&lt;/font&gt;&lt;/i&gt;command_1" style="html=1;overflow=block;blockSpacing=1;whiteSpace=wrap;ellipse;shape=cloud;fontSize=18;spacing=9;strokeColor=#000000;strokeOpacity=100;fillOpacity=100;rounded=1;absoluteArcSize=1;arcSize=9;fillColor=#FFFFFF;strokeWidth=2;lucidId=YW3KfiS4kU.2;movable=1;resizable=1;rotatable=1;deletable=1;editable=1;locked=0;connectable=1;align=center;verticalAlign=middle;fontFamily=Helvetica;fontColor=#000000;fontStyle=1;container=0;" vertex="1" parent="74">
                    <mxGeometry x="290" y="10" width="251.87" height="120" as="geometry"/>
                </mxCell>
                <mxCell id="GoKNf1hH-Z8f_osksqzi-77" value="Untitled Layer" style="" parent="0"/>
            </root>
        </mxGraphModel>
    </diagram>
</mxfile>